<svg  width="30px" height="30px" id="Layer_1" data-name="Layer 1" xmlns="http://www.w3.org/2000/svg" viewBox="0 0 87.37 87.37"><defs>
	<style>.cls-1{fill:#0a60a9;}.cls-2{fill:#267d3e;}</style></defs>
	<title>color-bug</title><path class="cls-1" d="M73.9,32.39v15H87.15A6.4,6.4,0,0,0,93.56,41V12.73a6.41,6.41,0,0,0-6.41-6.41H58.9a6.41,6.41,0,0,0-6.41,6.41V26h15A6.41,6.41,0,0,1,73.9,32.39Zm-48.05,0v15H12.6A6.41,6.41,0,0,1,6.19,41V12.73A6.41,6.41,0,0,1,12.6,6.32H40.85a6.41,6.41,0,0,1,6.41,6.41V26h-15A6.41,6.41,0,0,0,25.85,32.39Z" transform="translate(-6.19 -6.32)"/><path class="cls-2" d="M25.85,67.63v-15H12.6A6.41,6.41,0,0,0,6.19,59V87.29a6.41,6.41,0,0,0,6.41,6.41H40.85a6.41,6.41,0,0,0,6.41-6.41V74h-15A6.41,6.41,0,0,1,25.85,67.63Zm48.05,0v-15H87.15A6.41,6.41,0,0,1,93.56,59V87.29a6.41,6.41,0,0,1-6.41,6.41H58.9a6.41,6.41,0,0,1-6.41-6.41V74h15A6.41,6.41,0,0,0,73.9,67.63Z" transform="translate(-6.19 -6.32)"/>
</svg>