<?xml version="1.0" encoding="UTF-8" standalone="no"?>
<svg width="35px" height="35px" viewBox="0 0 35 35" version="1.1" xmlns="http://www.w3.org/2000/svg" xmlns:xlink="http://www.w3.org/1999/xlink">
    <!-- Generator: Sketch 3.7.2 (28276) - http://www.bohemiancoding.com/sketch -->
    <title>icon-social-instagram</title>
    <desc>Created with Sketch.</desc>
    <defs></defs>
    <g id="Page-1" stroke="none" stroke-width="1" fill="none" fill-rule="evenodd">
        <path d="M27,9.30714286 C27,8.03285714 25.9671429,7 24.6928571,7 L9.30714286,7 C8.03285714,7 7,8.03285714 7,9.30714286 L7,24.6914286 C7,25.9671429 8.03285714,27 9.30714286,27 L24.6928571,27 C25.9671429,27 27,25.9671429 27,24.6914286 L27,9.30714286 Z M35,17.5 C35,27.164375 27.164375,35 17.5,35 C7.835625,35 0,27.164375 0,17.5 C0,7.835625 7.835625,0 17.5,0 C27.164375,0 35,7.835625 35,17.5 L35,17.5 Z M23.5871429,16.7938289 C23.6271429,17.0687237 23.6528571,17.3492286 23.6528571,17.6339411 C23.6528571,20.9719495 20.8985714,23.6760168 17.5,23.6760168 C14.1014286,23.6760168 11.3471429,20.9719495 11.3471429,17.6353436 C11.3471429,17.3492286 11.3728571,17.0701262 11.4128571,16.7952314 C11.4514286,16.5231417 11.5071429,16.2580645 11.5814286,16 L10,16 L10,24.2454418 C10,24.6619916 10.3442857,25 10.7685714,25 L24.2314286,25 C24.6557143,25 25,24.6619916 25,24.2454418 L25,16 L23.4185714,16 C23.49,16.2580645 23.5471429,16.5231417 23.5871429,16.7938289 L23.5871429,16.7938289 Z M17.9985141,22 C20.2065379,22 22,20.2088443 22,17.9985136 C22,15.7881828 20.2065379,14 17.9985141,14 C15.7890045,14 14,15.7896693 14,18 C14,20.2103307 15.7890045,22 17.9985141,22 L17.9985141,22 Z M25,10.6879795 L25,12.3107417 C25,12.6905371 24.6916844,13 24.3117271,13 L22.6882729,13 C22.3057569,13 22,12.6905371 22,12.3107417 L22,10.6879795 C22,10.3081841 22.3057569,10 22.6882729,10 L24.3117271,10 C24.6916844,10 25,10.3081841 25,10.6879795 L25,10.6879795 Z" fill="#AAABB2"></path>
    </g>
</svg>