<?xml version="1.0" encoding="utf-8"?>
<!-- Generator: Adobe Illustrator 20.1.0, SVG Export Plug-In . SVG Version: 6.00 Build 0)  -->
<svg version="1.1" id="Layer_1" xmlns="http://www.w3.org/2000/svg" xmlns:xlink="http://www.w3.org/1999/xlink" x="0px" y="0px"
	 viewBox="0 0 400 399" style="enable-background:new 0 0 400 399;" xml:space="preserve">
<style type="text/css">
	.st0{fill:#AAABB2;}
</style>
<g>
	<path class="st0" d="M200,0C89.5,0,0,89.5,0,200s89.5,200,200,200s200-89.5,200-200S310.5,0,200,0z M291.5,280.1
		c-0.7,0.9-1.3,4-1.7,5.9c-0.4,1.9-0.8,3.8-1.4,5.8c-0.8,2.8-2.9,4.3-5.8,4.3h-0.1l-0.1,0c-1.4,0-3.3-0.2-5.6-0.7
		c-3.8-0.7-8-1.4-13.3-1.4c-3.1,0-6.3,0.3-9.6,0.8c-6.3,1.1-11.7,4.8-17.9,9.2c-8.9,6.3-19,13.4-34.3,13.4c-0.7,0-1.3,0-1.8,0
		c-0.4,0-0.8,0-1.3,0c-15.3,0-25.4-7.1-34.3-13.4c-6.2-4.4-11.6-8.2-17.9-9.2c-3.2-0.5-6.5-0.8-9.6-0.8c-5.6,0-10.1,0.9-13.3,1.5
		c-2.2,0.4-4.1,0.8-5.6,0.8c-3.9,0-5.5-2.4-6.1-4.4c-0.6-2-1-4-1.4-5.9c-0.4-1.9-1.1-5-1.8-5.9c-19.6-3-30.3-7.4-32.9-13.4
		c-0.3-0.8-0.5-1.5-0.6-2.3c-0.1-2.6,1.7-5,4.3-5.4c34-5.6,49.3-40.5,49.9-42c0-0.1,0.1-0.2,0.1-0.3c1.8-3.7,2.2-6.8,1.2-9.2
		c-2-4.6-9.2-6.9-14-8.4c-1.3-0.4-2.6-0.8-3.6-1.2c-11.6-4.6-13.2-9.8-12.5-13.4c0.9-5,7.1-8.4,12.2-8.4c1.5,0,2.8,0.3,4,0.8
		c4.4,2,8.2,3.1,11.5,3.1c2.5,0,4-0.6,4.9-1.1c-0.1-2-0.2-4.1-0.4-6.1c-1.1-17-2.4-38.1,3.2-50.5c16.5-37,51.4-39.8,61.8-39.8
		c0.3,0,4.3,0,4.3,0c0.2,0,0.4,0,0.6,0h0c10.3,0,45.4,2.9,61.9,39.9c5.6,12.4,4.2,33.6,3.1,50.6l0,0.7c-0.1,1.9-0.2,3.6-0.3,5.3
		c0.8,0.4,2.1,0.9,4.2,1c3.1-0.1,6.7-1.2,10.8-3.1c1.7-0.8,3.5-1,4.8-1c1.8,0,3.7,0.4,5.2,1l0,0c4.6,1.7,7.5,5,7.6,8.7
		c0.1,4.8-4.2,8.9-12.6,12.2c-1,0.4-2.3,0.8-3.6,1.2c-4.8,1.5-12,3.8-14,8.4c-1,2.4-0.6,5.5,1.2,9.2c0,0.1,0.1,0.2,0.1,0.3
		c0.6,1.5,15.9,36.4,49.9,42c2.6,0.4,4.5,2.8,4.3,5.4c0,0.8-0.2,1.6-0.6,2.3C321.9,272.7,311.1,277.1,291.5,280.1z"/>
</g>
</svg>
