<?xml version="1.0" encoding="UTF-8" standalone="no"?>
<svg width="35px" height="35px" viewBox="0 0 35 35" version="1.1" xmlns="http://www.w3.org/2000/svg" xmlns:xlink="http://www.w3.org/1999/xlink">
    <!-- Generator: Sketch 3.7.2 (28276) - http://www.bohemiancoding.com/sketch -->
    <title>icon-social-pinterest</title>
    <desc>Created with Sketch.</desc>
    <defs></defs>
    <g id="Page-1" stroke="none" stroke-width="1" fill="none" fill-rule="evenodd">
        <path d="M17,27 C15.97,27 14.9742857,26.8442857 14.0385714,26.5542857 C14.4471429,25.89 15.0571429,24.8014286 15.2814286,23.9328571 L15.9057143,21.5557143 C16.2328571,22.1785714 17.1842857,22.7042857 18.1971429,22.7042857 C21.2128571,22.7042857 23.3871429,19.9314286 23.3871429,16.4842857 C23.3871429,13.1814286 20.69,10.71 17.2214286,10.71 C12.9057143,10.71 10.6142857,13.6057143 10.6142857,16.76 C10.6142857,18.2271429 11.3957143,20.0528571 12.6457143,20.6342857 C12.8342857,20.7228571 12.9357143,20.6828571 12.98,20.5 L13.2557143,19.3671429 C13.28,19.2657143 13.2685714,19.1785714 13.1857143,19.0785714 C12.7742857,18.5785714 12.4414286,17.6571429 12.4414286,16.7971429 C12.4414286,14.5914286 14.1114286,12.4571429 16.9571429,12.4571429 C19.4142857,12.4571429 21.1342857,14.1314286 21.1342857,16.5257143 C21.1342857,19.2314286 19.7671429,21.1042857 17.99,21.1042857 C17.0085714,21.1042857 16.2742857,20.2928571 16.51,19.2971429 C16.7914286,18.1071429 17.3385714,16.8257143 17.3385714,15.9671429 C17.3385714,15.2 16.9271429,14.5585714 16.0728571,14.5585714 C15.07,14.5585714 14.2614286,15.5971429 14.2614286,16.9871429 C14.2614286,17.8742857 14.5628571,18.4728571 14.5628571,18.4728571 C14.5628571,18.4728571 13.5714286,22.6642857 13.39,23.4428571 C13.1871429,24.3071429 13.2671429,25.52 13.3542857,26.3114286 C9.63571429,24.8542857 7,21.2357143 7,17 C7,11.4771429 11.4785714,7 17,7 C22.5214286,7 27,11.4771429 27,17 C27,22.5228571 22.5214286,27 17,27 M17.5,0 C7.835625,0 0,7.835625 0,17.5 C0,27.164375 7.835625,35 17.5,35 C27.164375,35 35,27.164375 35,17.5 C35,7.835625 27.164375,0 17.5,0" fill="#AAABB2"></path>
    </g>
</svg>