<svg id="Layer_1" data-name="Layer 1" xmlns="http://www.w3.org/2000/svg" viewBox="0 0 243.44 240.03"><defs><style>.cls-1{fill:#fff;}</style></defs><title>social-li</title><path class="cls-1" d="M100,54.44c0,14.38-10.62,26-28.08,26-16.43,0-27-11.64-27-26,0-14.72,11-26,27.73-26S99.66,39.72,100,54.44Zm-53.76,214V101h52V268.45h-52Z" transform="translate(-44.87 -28.42)"/><path class="cls-1" d="M129.44,154.43c0-20.88-.68-38.35-1.37-53.41h45.2l2.4,23.28h1c6.85-11,23.63-27.05,51.71-27.05,34.24,0,59.92,22.94,59.92,72.25v99h-52V175.66c0-21.57-7.54-36.29-26.37-36.29-14.38,0-22.94,9.93-26.71,19.51-1.37,3.42-1.72,8.22-1.72,13v96.56h-52v-114Z" transform="translate(-44.87 -28.42)"/></svg>