<svg id="Layer_1" data-name="Layer 1" xmlns="http://www.w3.org/2000/svg" viewBox="0 0 14.4 10.45"><defs><style>.cls-1{fill:#fff;}</style></defs><title>sound-on</title><path class="cls-1" d="M17.23,7.71l-.81.95a5.52,5.52,0,0,1,1.73,4.2,5.48,5.48,0,0,1-1.86,4.31l.76,1a6.66,6.66,0,0,0,2.34-5.29A6.77,6.77,0,0,0,17.23,7.71Zm-3.47,3.23-.88.89a1.47,1.47,0,0,1,.38,1A1.4,1.4,0,0,1,12.79,14l.73,1a2.61,2.61,0,0,0,1-2.13A2.7,2.7,0,0,0,13.76,10.94ZM5,10.82V15.1l2.77,0,3.28,2.73V8.09L7.77,10.82ZM15.38,9.2l-.82.94a3.6,3.6,0,0,1,1.1,2.71,3.57,3.57,0,0,1-1.18,2.78l.77,1a4.77,4.77,0,0,0,1.66-3.76A4.85,4.85,0,0,0,15.38,9.2Z" transform="translate(-5 -7.71)"/></svg>