<?xml version="1.0" encoding="UTF-8" standalone="no"?>
<svg width="35px" height="35px" viewBox="0 0 35 35" version="1.1" xmlns="http://www.w3.org/2000/svg" xmlns:xlink="http://www.w3.org/1999/xlink">
    <!-- Generator: Sketch 3.7.2 (28276) - http://www.bohemiancoding.com/sketch -->
    <title>icon-social-youtube</title>
    <desc>Created with Sketch.</desc>
    <defs></defs>
    <g id="Page-1" stroke="none" stroke-width="1" fill="none" fill-rule="evenodd">
        <path d="M15,14 L22,17.4940222 L15,21 L15,14 Z M23.3442857,24.838 C20.3414286,25.054 13.6528571,25.054 10.6542857,24.838 C7.40285714,24.604 7.02428571,22.933 7,17.5 C7.02428571,12.0565 7.40714286,10.396 10.6542857,10.162 C13.6528571,9.946 20.3428571,9.946 23.3442857,10.162 C26.5971429,10.396 26.9742857,12.067 27,17.5 C26.9742857,22.9435 26.5928571,24.604 23.3442857,24.838 L23.3442857,24.838 Z M17.5,0 C7.835625,0 0,7.835625 0,17.5 C0,27.164375 7.835625,35 17.5,35 C27.164375,35 35,27.164375 35,17.5 C35,7.835625 27.164375,0 17.5,0 L17.5,0 Z" fill="#AAABB2"></path>
    </g>
</svg>