<?xml version="1.0" encoding="UTF-8" standalone="no"?>
<svg width="35px" height="35px" viewBox="0 0 35 35" version="1.1" xmlns="http://www.w3.org/2000/svg" xmlns:xlink="http://www.w3.org/1999/xlink">
    <!-- Generator: Sketch 3.7.2 (28276) - http://www.bohemiancoding.com/sketch -->
    <title>icon-social-facebook</title>
    <desc>Created with Sketch.</desc>
    <defs></defs>
    <g id="Page-1" stroke="none" stroke-width="1" fill="none" fill-rule="evenodd">
        <path d="M22,11.2857143 L20.0714286,11.2857143 C19.3028571,11.2857143 19.1428571,11.6014286 19.1428571,12.3971429 L19.1428571,14.1428571 L22,14.1428571 L21.7014286,17 L19.1428571,17 L19.1428571,27 L14.8571429,27 L14.8571429,17 L12,17 L12,14.1428571 L14.8571429,14.1428571 L14.8571429,10.8457143 C14.8571429,8.31857143 16.1871429,7 19.1842857,7 L22,7 L22,11.2857143 Z M17.5,0 C7.835625,0 0,7.835625 0,17.5 C0,27.164375 7.835625,35 17.5,35 C27.164375,35 35,27.164375 35,17.5 C35,7.835625 27.164375,0 17.5,0 L17.5,0 Z" fill="#AAABB2"></path>
    </g>
</svg>