<?xml version="1.0" encoding="UTF-8" standalone="no"?>
<svg width="35px" height="35px" viewBox="0 0 35 35" version="1.1" xmlns="http://www.w3.org/2000/svg" xmlns:xlink="http://www.w3.org/1999/xlink">
    <!-- Generator: Sketch 3.7.2 (28276) - http://www.bohemiancoding.com/sketch -->
    <title>icon-social-linkedin</title>
    <desc>Created with Sketch.</desc>
    <defs></defs>
    <g id="Page-1" stroke="none" stroke-width="1" fill="none" fill-rule="evenodd">
        <path d="M27,26 L23.0044676,26 L23.0044676,20.2870471 C23.0044676,16.5319289 19,16.8500585 19,20.2870471 L19,26 L15,26 L15,14.0210839 L19,14.0210839 L19,16.2033932 C20.743857,12.9760134 27,12.7366729 27,19.2940071 L27,26 Z M10.9993232,12 C9.89610829,12 9,11.1057402 9,9.99932863 C9,8.89694528 9.89475465,8 10.9993232,8 C12.1052453,8 13,8.89694528 13,9.99932863 C13,11.1057402 12.1038917,12 10.9993232,12 L10.9993232,12 Z M9,26 L13,26 L13,14 L9,14 L9,26 Z M17.5,0 C7.835625,0 0,7.8359515 0,17.5007292 C0,27.1640485 7.835625,35 17.5,35 C27.164375,35 35,27.1640485 35,17.5007292 C35,7.8359515 27.164375,0 17.5,0 L17.5,0 Z" fill="#AAABB2"></path>
    </g>
</svg>