<svg width="35" height="35" viewBox="0 0 35 35" xmlns="http://www.w3.org/2000/svg"><title>icon-social-twitter</title><path d="M25.953 14.235C26.214 20.271 21.91 27 14.289 27c-2.317 0-4.473-.711-6.289-1.929 2.177.27 4.35-.364 6.075-1.776-1.795-.034-3.31-1.276-3.835-2.98a3.941 3.941 0 0 0 1.855-.074c-1.973-.415-3.336-2.274-3.292-4.262a3.958 3.958 0 0 0 1.859.536c-1.828-1.277-2.345-3.8-1.27-5.73 2.023 2.597 5.047 4.305 8.457 4.484-.598-2.683 1.349-5.269 4-5.269a4.02 4.02 0 0 1 2.994 1.355 7.972 7.972 0 0 0 2.606-1.041 4.28 4.28 0 0 1-1.805 2.374A7.91 7.91 0 0 0 28 12.01a8.456 8.456 0 0 1-2.047 2.224M17.5 0C7.836 0 0 7.836 0 17.5S7.836 35 17.5 35 35 27.164 35 17.5 27.164 0 17.5 0" fill="#AAABB2" fill-rule="evenodd"/></svg>