<svg width="24" height="20" viewBox="0 0 24 20" xmlns="http://www.w3.org/2000/svg" xmlns:xlink="http://www.w3.org/1999/xlink"><title>icon-share-twitter</title><defs><path id="a" d="M22.15 18H0V0h22.15v18z"/></defs><g transform="translate(1 1)" fill="none" fill-rule="evenodd"><mask id="b" fill="#fff"><use xlink:href="#a"/></mask><path d="M22.15 2.13a9.072 9.072 0 0 1-2.61.716A4.546 4.546 0 0 0 21.536.332a9.11 9.11 0 0 1-2.885 1.103A4.538 4.538 0 0 0 15.335 0c-2.934 0-5.09 2.737-4.427 5.578A12.897 12.897 0 0 1 1.542.831 4.55 4.55 0 0 0 2.948 6.9 4.527 4.527 0 0 1 .89 6.33c-.049 2.106 1.46 4.075 3.645 4.514-.64.173-1.34.214-2.052.078a4.548 4.548 0 0 0 4.245 3.155A9.138 9.138 0 0 1 0 15.96 12.865 12.865 0 0 0 6.966 18c8.437 0 13.203-7.126 12.915-13.517a9.232 9.232 0 0 0 2.268-2.352" fill="#AAABB2" mask="url(#b)"/></g></svg>