<svg width="220" height="35" viewBox="0 0 220 35" xmlns="http://www.w3.org/2000/svg"><title>logo-ccf</title><g fill="none" fill-rule="evenodd"><path d="M26.6 10.2v5.9h5.2c1.4 0 2.5-1.1 2.5-2.5V2.5c0-1.4-1.1-2.5-2.5-2.5H20.7c-1.4 0-2.5 1.1-2.5 2.5v5.2h5.9c1.4 0 2.5 1.2 2.5 2.5zm-18.9 0v5.9H2.5C1.1 16.1 0 15 0 13.6V2.5C0 1.1 1.1 0 2.5 0h11.1c1.4 0 2.5 1.1 2.5 2.5v5.2h-5.9c-1.3 0-2.5 1.2-2.5 2.5z" fill="#085FA9"/><path d="M7.7 24.1v-5.9H2.5c-1.4 0-2.5 1.1-2.5 2.5v11.1c0 1.4 1.1 2.5 2.5 2.5h11.1c1.4 0 2.5-1.1 2.5-2.5v-5.2h-5.9c-1.3 0-2.5-1.1-2.5-2.5zm18.9 0v-5.9h5.2c1.4 0 2.5 1.1 2.5 2.5v11.1c0 1.4-1.1 2.5-2.5 2.5H20.7c-1.4 0-2.5-1.1-2.5-2.5v-5.2h5.9c1.4 0 2.5-1.1 2.5-2.5z" fill="#247C3E"/><path fill="#343536" d="M94.2 25.9h.1l-.1-.1zm-37.3-5.2c-.6 3.9-3.2 6.2-7.1 6.2-5.4 0-7.8-5-7.8-9.7 0-4.8 2.4-9.7 7.8-9.7 3.9 0 6.5 2.2 7.1 6.2l-3.6.5c-.4-2-1.2-3.7-3.5-3.7-3.2 0-3.9 4.3-3.9 6.7 0 2.4.7 6.7 3.9 6.7 2.3 0 3.2-1.8 3.5-3.7l3.6.5zm2.2-13h3.6v18.9h-3.6zm14.2 10.7c0-1.5-.6-3-2.3-3-1.6 0-2.3 1.6-2.3 3h4.6zm-4.8 2.3c-.1 1.6.8 3.6 2.7 3.6 1.1 0 1.9-.7 2.3-2l3.4.4c-.8 2.7-3.4 4.2-5.9 4.2-4 0-6-3.5-6-7.1 0-3.6 2-7.1 6-7.1 3.4 0 6 1.6 5.9 7.9h-8.4v.1z"/><path d="M98.8 18.4c0-1.5-.6-3-2.3-3-1.6 0-2.3 1.6-2.3 3h4.6zM94 20.7c-.1 1.6.8 3.6 2.7 3.6 1.1 0 1.9-.7 2.3-2l3.4.4c-.8 2.7-3.4 4.2-5.9 4.2-4 0-6-3.5-6-7.1 0-3.6 2-7.1 6-7.1 3.4 0 6 1.6 5.9 7.9H94v.1zm-8.3 5.9h-3.8L77.7 13h3.7l2.4 10h.1l2.3-10h3.6zm19-18.9h3.6v18.9h-3.6zm13.7 12.7c-1.5.3-4.4.4-4.4 2.4 0 .8.4 1.5 1.2 1.5 1.5 0 2.5-.9 3.2-1.8v-2.1zm.2 4.9c-1.3.9-2.2 1.5-3.9 1.5-2.4 0-4.3-1.6-4.3-4 0-3.8 5-4.6 7.9-4.9.2-1.9-.4-2.6-1.7-2.6-1.1 0-2 .5-2.2 1.7l-3.4-.5c.8-2.9 2.7-3.8 5.6-3.8 3.7 0 5.3 1.7 5.3 4.3v6.7c0 1 0 1.9.5 2.8H119c-.3-.5-.4-1.2-.4-1.2zm9.9-10.9c1.1-.9 2.5-1.7 4.1-1.7 1.5 0 3.6.9 3.6 4.2v9.6h-3.6v-8.2c0-1.1.1-2.8-1.5-2.8-1 0-1.9.8-2.5 1.5v9.5H125V13h3.6v1.4h-.1zm44.6 6.3c-.6 3.9-3.2 6.2-7.1 6.2-5.4 0-7.8-5-7.8-9.7 0-4.8 2.4-9.7 7.8-9.7 3.9 0 6.5 2.2 7.1 6.2l-3.6.5c-.4-2-1.2-3.7-3.5-3.7-3.2 0-3.9 4.3-3.9 6.7 0 2.4.7 6.7 3.9 6.7 2.3 0 3.2-1.8 3.5-3.7l3.6.5zm2.2-13h3.6v18.9h-3.6zm10.2 18.9h-3.6V13h3.6v13.6zm0-15.6h-3.6V7.7h3.6V11zm6.5 3.4c1.1-.9 2.5-1.7 4-1.7s3.6.9 3.6 4.2v9.6H196v-8.2c0-1.1.1-2.8-1.5-2.8-1 0-1.9.8-2.5 1.5v9.5h-3.6V13h3.6v1.4zm14.1 12.2h-3.6V13h3.6v13.6zm0-15.6h-3.6V7.7h3.6V11zM220 22.2c-.6 2.8-2.6 4.7-5.7 4.7-4 0-6-3.5-6-7.1 0-3.6 2-7.1 6-7.1 3 0 5.1 1.8 5.7 4.7l-3.3.4c-.2-1.1-.6-2.5-2.4-2.5-1.9 0-2.3 2.7-2.3 4.4 0 1.7.3 4.4 2.3 4.4 1.8 0 2.1-1.2 2.4-2.5l3.3.6zm-73.1.1c-.6.8-1.3 1.6-2.3 1.6-2.2 0-2.5-2.6-2.5-4.2 0-1.5.4-4 2.4-4 1 0 1.8.7 2.4 1.5v5.1zm3.6 1.9V7.7h-3.6v6.6c-1-.9-1.9-1.6-3.3-1.6-2 0-5 1.7-5 6.7 0 5.7 2.5 7.4 5.3 7.4 1.5 0 2.3-.5 3.4-1.5 0 0 .1.7.4 1.2h3.3c-.4-.7-.5-1.5-.5-2.3z" fill="#343536"/></g></svg>