<svg width="35" height="35" viewBox="0 0 35 35" xmlns="http://www.w3.org/2000/svg">
<title>logo-ccf</title>
<g fill="none" fill-rule="evenodd">
<path d="M26.6 10.2v5.9h5.2c1.4 0 2.5-1.1 2.5-2.5V2.5c0-1.4-1.1-2.5-2.5-2.5H20.7c-1.4 0-2.5 1.1-2.5 2.5v5.2h5.9c1.4 0 2.5 1.2 2.5 2.5zm-18.9 0v5.9H2.5C1.1 16.1 0 15 0 13.6V2.5C0 1.1 1.1 0 2.5 0h11.1c1.4 0 2.5 1.1 2.5 2.5v5.2h-5.9c-1.3 0-2.5 1.2-2.5 2.5z" fill="#ffffff"/>
<path d="M7.7 24.1v-5.9H2.5c-1.4 0-2.5 1.1-2.5 2.5v11.1c0 1.4 1.1 2.5 2.5 2.5h11.1c1.4 0 2.5-1.1 2.5-2.5v-5.2h-5.9c-1.3 0-2.5-1.1-2.5-2.5zm18.9 0v-5.9h5.2c1.4 0 2.5 1.1 2.5 2.5v11.1c0 1.4-1.1 2.5-2.5 2.5H20.7c-1.4 0-2.5-1.1-2.5-2.5v-5.2h5.9c1.4 0 2.5-1.1 2.5-2.5z" fill="#ffffff"/></g></svg>