<svg id="Layer_1" data-name="Layer 1" xmlns="http://www.w3.org/2000/svg" viewBox="0 0 256.5 208.45"><defs><style>.cls-1{fill:#fff;}</style></defs><title>social-tw</title><path class="cls-1" d="M289.25,77.95A105.19,105.19,0,0,1,259,86.24a52.78,52.78,0,0,0,23.14-29.11,105.35,105.35,0,0,1-33.42,12.77,52.67,52.67,0,0,0-89.67,48,149.4,149.4,0,0,1-108.47-55,52.68,52.68,0,0,0,16.29,70.26,52.42,52.42,0,0,1-23.84-6.58c0,0.22,0,.44,0,0.66a52.66,52.66,0,0,0,42.21,51.6,52.73,52.73,0,0,1-23.77.9,52.68,52.68,0,0,0,49.16,36.54A105.58,105.58,0,0,1,45.3,238.82a106.78,106.78,0,0,1-12.55-.74,149,149,0,0,0,80.67,23.64c96.79,0,149.73-80.19,149.73-149.73q0-3.42-.15-6.81A106.92,106.92,0,0,0,289.25,77.95Z" transform="translate(-32.75 -53.27)"/></svg>